<?xml version="1.0" encoding="UTF-8" standalone="no"?>
<!DOCTYPE svg PUBLIC "-//W3C//DTD SVG 1.1//EN" "http://www.w3.org/Graphics/SVG/1.1/DTD/svg11.dtd">
<svg width="100%" height="100%" viewBox="0 0 12 13" version="1.1" xmlns="http://www.w3.org/2000/svg" xmlns:xlink="http://www.w3.org/1999/xlink" xml:space="preserve" xmlns:serif="http://www.serif.com/" style="fill-rule:evenodd;clip-rule:evenodd;stroke-linejoin:round;stroke-miterlimit:2;">
    <g transform="matrix(1,0,0,1,-6.92708,-5.63713)">
        <path d="M17.132,16.369C16.755,17.012 16.279,17.522 15.853,17.89L9.132,17.89C8.647,17.48 8.306,17.023 8.174,16.834C8.111,16.745 8.005,16.581 7.882,16.369L17.132,16.369ZM18.002,13.658C17.965,14.092 17.861,14.619 17.677,15.166L7.295,15.166C7.226,14.99 7.165,14.812 7.117,14.637C7.069,14.461 6.996,14.098 6.951,13.658L18.002,13.658ZM17.545,10.842C17.586,10.928 17.624,11.018 17.657,11.112C17.851,11.667 17.953,12.089 18.001,12.455L6.927,12.455C6.947,12.204 6.986,11.957 7.05,11.728C7.143,11.4 7.268,11.104 7.406,10.842L17.545,10.842ZM8.286,9.639C8.362,9.563 8.408,9.524 8.408,9.524C8.408,9.524 9.085,8.892 9.987,8.791C10.889,8.69 12.024,8.93 12.024,8.93L11.635,7.466L11.418,6.615C11.418,6.615 11.393,6.535 11.489,6.535C11.584,6.536 11.764,6.53 11.764,6.53C11.764,6.53 11.892,6.407 11.995,6.445C12.086,6.479 12.555,8.927 12.555,8.927C12.555,8.927 12.595,8.305 13.15,7.585C13.705,6.865 14.288,6.398 15.05,6.142C15.813,5.887 17.216,5.623 17.796,5.638C17.796,5.638 17.419,7.129 17.079,7.742C16.739,8.354 16.645,8.692 16.008,9.296C16.008,9.296 16.24,9.41 16.537,9.639L8.286,9.639Z" style="fill:rgb(178,212,93);"/>
    </g>
</svg>
